<?xml version="1.0" encoding="UTF-8" standalone="no"?>
<!-- Created with Inkscape (http://www.inkscape.org/) -->

<svg
   width="76.200005mm"
   height="85.605621mm"
   viewBox="0 0 76.200005 85.605621"
   version="1.1"
   id="svg1381"
   inkscape:version="1.1.2 (0a00cf5339, 2022-02-04)"
   sodipodi:docname="logo_cube_seul_white.svg"
   xmlns:inkscape="http://www.inkscape.org/namespaces/inkscape"
   xmlns:sodipodi="http://sodipodi.sourceforge.net/DTD/sodipodi-0.dtd"
   xmlns="http://www.w3.org/2000/svg"
   xmlns:svg="http://www.w3.org/2000/svg">
  <sodipodi:namedview
     id="namedview1383"
     pagecolor="#505050"
     bordercolor="#eeeeee"
     borderopacity="1"
     inkscape:pageshadow="0"
     inkscape:pageopacity="0"
     inkscape:pagecheckerboard="0"
     inkscape:document-units="mm"
     showgrid="false"
     fit-margin-top="0"
     fit-margin-left="0"
     fit-margin-right="0"
     fit-margin-bottom="0"
     inkscape:zoom="0.75455247"
     inkscape:cx="-34.457511"
     inkscape:cy="331.32222"
     inkscape:window-width="1920"
     inkscape:window-height="1007"
     inkscape:window-x="0"
     inkscape:window-y="0"
     inkscape:window-maximized="1"
     inkscape:current-layer="g963" />
  <defs
     id="defs1378" />
  <g
     inkscape:label="Layer 1"
     inkscape:groupmode="layer"
     id="layer1"
     transform="translate(-114.08182,-60.989399)">
    <g
       inkscape:export-ydpi="400"
       inkscape:export-xdpi="400"
       inkscape:export-filename="./logo_seul.png"
       transform="translate(-96.252109,1.71343)"
       id="g963">
      <g
         id="g953"
         transform="translate(106.99531,-73.12117)"
         style="fill:#ffffff">
        <path
           inkscape:connector-curvature="0"
           style="opacity:1;fill:#ffffff;fill-opacity:1;fill-rule:nonzero;stroke:none;stroke-width:3.8187;stroke-miterlimit:4;stroke-dasharray:none;stroke-opacity:1;paint-order:markers fill stroke"
           d="m 794.96289,311.87109 v 160 l 140,75.71289 v -160 z m 62.91992,62.23047 7.08008,3.85938 7.08008,3.86133 0.25195,14.51562 0.25196,14.51758 11.39648,5.78125 11.39648,5.7832 v 7.76563 7.76562 L 883.91992,432.15625 872.5,426.36133 v 29.23437 29.23438 l -7.30859,-3.70899 -7.3086,-3.70898 v -29.20703 -29.20703 l -11.64843,-6.16602 -11.64844,-6.16601 v -7.3086 -7.30859 l 11.64844,5.65429 11.64843,5.65626 v -14.62891 z"
           id="path947"
           transform="matrix(0.26458333,0,0,0.26458333,-106.99531,73.12117)" />
        <path
           inkscape:connector-curvature="0"
           style="opacity:1;fill:#ffffff;fill-opacity:1;fill-rule:nonzero;stroke:none;stroke-width:3.8187;stroke-miterlimit:4;stroke-dasharray:none;stroke-opacity:1;paint-order:markers fill stroke"
           d="m 1082.9629,311.87109 -140.00001,75.71289 v 160 l 140.00001,-75.71289 z m -64.3438,65.30664 c 0.2351,-0.003 0.4673,0.004 0.6973,0.0215 7.5443,0.56481 8.6011,8.44094 2.5977,19.35742 -2.9274,5.32358 -3.3398,6.66652 -3.1055,10.12891 l 0.2695,3.99218 6.6797,-3.30273 6.6777,-3.30273 -0.2832,2.95703 c -0.2824,2.94897 -0.2967,2.96249 -6.2226,6.25586 l -5.9375,3.29882 0.1621,16.95899 c 0.1713,17.96644 0.9617,21.40017 4.7422,20.57812 3.9162,-0.85164 21.1328,-18.09346 21.1328,-21.16406 0,-2.06026 5.3272,-11.8845 6.3965,-11.79492 0.4147,0.0344 1.0244,1.52335 1.3554,3.30664 0.5405,2.91012 0.1884,4.05778 -3.4355,11.19727 -4.8142,9.48412 -11.8839,19.21219 -20.4375,28.11914 -3.4431,3.58533 -8.5236,9.07656 -11.2871,12.20117 -2.7636,3.12468 -5.4351,5.86458 -5.9375,6.08984 -0.5025,0.22526 -6.1568,0.26843 -12.5664,0.0957 -13.96518,-0.37595 -16.60266,-0.99016 -23.09767,-5.39063 -5.0877,-3.44689 -6.06567,-6.24136 -4.19726,-11.98828 0.58473,-1.79872 1.05904,-1.81569 3.98046,-0.14453 2.16964,1.24112 3.15803,2.57992 2.86133,3.87304 -0.36778,1.60305 0.72431,1.88779 5.77735,1.51172 8.92478,-0.66448 14.06224,-1.73327 15.91989,-3.3164 0.8901,-0.75852 2.0505,-2.92709 2.5782,-4.81836 1.3227,-4.74089 2.7701,-20.15095 2.789,-29.67188 0.017,-9.03193 0.031,-9.02167 -7.8242,-4.82031 -4.87378,2.60659 -4.94922,2.60676 -4.94922,-0.0508 0,-2.69635 0.006,-2.70307 6.16602,-6.26758 l 6.168,-3.57031 0.2812,-5.07617 c 0.2534,-4.58465 0.01,-5.21196 -2.5293,-6.47266 -3.2841,-1.63189 -4.86811,-5.44968 -4.04686,-9.75195 1.37406,-7.19894 7.41566,-14.60534 13.45506,-17.62696 v 0.002 c 1.7615,-0.88128 3.5243,-1.39356 5.1699,-1.41407 z m -2.9414,7.99805 c -0.8577,0.001 -1.8017,0.3199 -2.7402,0.85938 -3.3038,1.89947 -6.5503,6.55574 -5.8184,9.89257 0.963,4.38955 5.3398,3.7752 9.4727,-1.33007 2.4636,-3.0432 2.7346,-7.79641 0.5176,-9.06055 -0.4339,-0.24732 -0.917,-0.36209 -1.4317,-0.36133 z"
           transform="matrix(0.26458333,0,0,0.26458333,-106.99531,73.12117)"
           id="path949" />
        <path
           inkscape:connector-curvature="0"
           style="opacity:1;fill:#ffffff;fill-opacity:1;fill-rule:nonzero;stroke:none;stroke-width:3.75132;stroke-miterlimit:4;stroke-dasharray:none;stroke-opacity:1;paint-order:markers fill stroke"
           d="m 941.88867,224.03516 -142.92578,81.83593 140,75.71289 140.00001,-75.71289 z m -9.13086,44.24609 c 8.63291,0.0716 16.35816,4.24997 19.65821,12.30859 1.06102,2.59117 1.88712,5.8449 1.83398,7.23047 l -0.0977,2.51953 5.5293,0.38282 c 13.07165,0.9058 21.54069,7.71219 21.69531,17.43359 0.0847,5.3283 -3.03168,10.66325 -9.20898,15.76172 -10.77933,8.89659 -25.13955,13.19275 -44.85156,13.41797 -8.18945,0.0937 -26.2009,-1.69105 -27.46485,-2.72071 -0.31786,-0.25889 -1.10157,-3.09899 -1.74023,-6.3125 -4.1746,-21.00476 0.0525,-38.63968 12.09375,-50.45898 6.61257,-6.4907 14.93546,-9.62566 22.55273,-9.5625 z"
           transform="matrix(0.26458333,0,0,0.26458333,-106.99531,73.12117)"
           id="path951" />
      </g>
    </g>
  </g>
</svg>
